<svg width="20" height="20" viewBox="0 0 28 28" fill="none" xmlns="http://www.w3.org/2000/svg">
<path d="M17.5078 22.1645C17.7781 22.165 18.0401 22.0703 18.2482 21.8967C18.3654 21.799 18.4622 21.679 18.5332 21.5436C18.6042 21.4081 18.6479 21.2599 18.6619 21.1075C18.6758 20.955 18.6598 20.8012 18.6146 20.655C18.5694 20.5088 18.496 20.373 18.3986 20.2554L13.2158 14.0159L18.2135 7.76475C18.3096 7.64567 18.3814 7.50867 18.4247 7.3616C18.468 7.21453 18.482 7.0603 18.4659 6.90777C18.4497 6.75524 18.4038 6.60742 18.3307 6.47281C18.2576 6.3382 18.1588 6.21945 18.04 6.12339C17.9203 6.01741 17.7801 5.93748 17.6283 5.8886C17.4764 5.83972 17.3162 5.82295 17.1576 5.83935C16.999 5.85574 16.8454 5.90495 16.7066 5.98388C16.5678 6.0628 16.4467 6.16975 16.351 6.298L10.7633 13.2825C10.5931 13.4908 10.5001 13.7521 10.5001 14.0217C10.5001 14.2913 10.5931 14.5526 10.7633 14.7609L16.5476 21.7454C16.6637 21.8863 16.8111 21.9976 16.9779 22.0705C17.1448 22.1433 17.3263 22.1755 17.5078 22.1645Z" fill="#3C4563"/>
</svg>
