<svg width="30" height="30" viewBox="0 0 46 48" fill="none" xmlns="http://www.w3.org/2000/svg">
<path fill-rule="evenodd" clip-rule="evenodd" d="M0.36377 24.5144L0.36605 24.2776L0.370754 24.0407L0.377892 23.8037L0.387453 23.5667L0.39946 23.3298L0.41389 23.0928L0.430767 22.856L0.450066 22.6192L0.471811 22.3824L0.495991 22.1457L0.522606 21.9094L0.551643 21.673L0.583127 21.4369L0.617045 21.201L0.653386 20.9653L0.692161 20.73L0.733371 20.4948L0.776992 20.2601L0.823048 20.0257L0.871526 19.7915L0.922427 19.5578L0.975727 19.3245L1.03146 19.0917L1.08958 18.8592L1.15013 18.6273L1.21306 18.3958L1.2784 18.1649L1.34613 17.9346L1.41625 17.7048L1.48874 17.4757L1.56362 17.2471L1.64088 17.0191L1.7205 16.7919L1.80247 16.5653L1.8868 16.3395L1.97348 16.1143L2.0625 15.89L2.15386 15.6664L2.24754 15.4438L2.34354 15.2218L2.44186 15.0007L2.54248 14.7805L2.64539 14.5613L2.75059 14.3429L2.85808 14.1254L2.96784 13.909L3.07985 13.6936L3.19412 13.4791L3.31062 13.2658L3.42936 13.0534L3.55033 12.8421L3.6735 12.632L3.79888 12.4229L3.92644 12.215L4.0562 12.0083L4.18811 11.8028L4.32219 11.5986L4.45842 11.3954L4.59677 11.1937L4.73725 10.9931L4.87984 10.7939L5.02452 10.5961L5.17129 10.3994L5.32013 10.2043L5.47103 10.0105L5.62397 9.81799L5.77894 9.62701L5.93594 9.43747L6.09493 9.24939L6.25591 9.0628L6.41887 8.87771L6.58379 8.69416L6.75065 8.51215L6.91945 8.33171L7.09015 8.15286L7.26275 7.97561L7.43724 7.79998L7.61359 7.62599L7.79179 7.45367L7.97183 7.28303L8.15369 7.1141L8.33734 6.94687L8.52278 6.78139L8.71 6.61766L8.89896 6.45569L9.08964 6.29553L9.28204 6.13718L9.47614 5.98065L9.67192 5.82596L9.86937 5.67313L10.0684 5.52219L10.2692 5.37312L10.4715 5.22599L10.6754 5.08078L10.8808 4.93751L11.0878 4.7962L11.2963 4.65685L11.5063 4.51951L11.7179 4.38417L11.9309 4.25086L12.1453 4.11958L12.3612 3.99035L12.5785 3.8632L12.7971 3.73813L13.0171 3.61515L13.2385 3.49428L13.4612 3.37553L13.6851 3.25893L13.9104 3.14447L14.1369 3.03219L14.3647 2.92208L14.5937 2.81416L14.8238 2.70844L15.0552 2.60495L15.2877 2.50368L15.5213 2.40466L15.756 2.30789L15.9918 2.21338L16.2286 2.12114L16.4665 2.0312L16.7054 1.94355L16.9453 1.85822L17.1861 1.7752L17.4279 1.6945L17.6706 1.61616L17.9141 1.54016L18.1586 1.46652L18.404 1.39525L18.65 1.32637L18.897 1.25985L19.1448 1.19574L19.3932 1.13404L19.6423 1.07476L19.8923 1.01788L20.1428 0.96344L20.3939 0.911429L20.6458 0.861863L20.8982 0.814756L21.1512 0.770095L21.4049 0.727904L21.659 0.688183L21.9135 0.650932L22.1686 0.616175L22.4241 0.583899L22.68 0.554118L22.9364 0.526818L23.1931 0.502047L23.4501 0.479769L23.7075 0.459998L23.9652 0.442755L25.3507 0.363632L25.4298 7.03933L25.475 7.03881L25.6664 7.03854L25.8577 7.04015L26.0491 7.04364L26.2406 7.04901L26.4321 7.05627L26.6237 7.06539L26.8152 7.07642L27.0068 7.08934L27.1983 7.10412L27.3898 7.12081L27.5812 7.13939L27.7725 7.15986L27.9636 7.1822L28.1547 7.20644L28.3456 7.23257L28.5363 7.26058L28.7268 7.29049L28.9172 7.32229L29.1072 7.35596L29.2972 7.39152L29.4867 7.42896L29.6759 7.46829L29.865 7.50949L30.0536 7.55256L30.2419 7.59751L30.4299 7.64433L30.6175 7.69303L30.8046 7.74359L30.9913 7.79602L31.1777 7.8503L31.3635 7.90643L31.5488 7.96443L31.7336 8.02427L31.918 8.08596L32.1017 8.14949L32.2849 8.21485L32.4676 8.28204L32.6496 8.35107L32.831 8.42191L33.0119 8.49458L33.192 8.56906L33.3714 8.64533L33.5502 8.72341L33.7283 8.80329L33.9055 8.88496L34.0821 8.96839L34.258 9.05361L34.433 9.14061L34.6072 9.22936L34.7806 9.31987L34.9531 9.41212L35.1248 9.50612L35.2956 9.60185L35.4655 9.6993L35.6345 9.79847L35.8026 9.89937L35.9697 10.002L36.1359 10.1062L36.301 10.2122L36.4651 10.3197L36.6282 10.4291L36.7904 10.54L36.9513 10.6525L37.1114 10.7668L37.2702 10.8826L37.4278 11.0001L37.5845 11.1192L37.74 11.2399L37.8943 11.3622L38.0473 11.486L38.1993 11.6114L38.35 11.7384L38.4995 11.8669L38.6478 11.9969L38.7948 12.1284L38.9404 12.2615L39.0849 12.3961L39.228 12.5321L39.3698 12.6696L39.5102 12.8085L39.6493 12.9489L39.787 13.0909L39.9234 13.2341L40.0582 13.3788L40.1918 13.5248L40.3238 13.6723L40.4544 13.8211L40.5835 13.9713L40.7112 14.1228L40.8374 14.2756L40.9621 14.4299L41.0852 14.5853L41.2068 14.742L41.3269 14.9L41.4454 15.0593L41.5623 15.2198L41.6777 15.3816L41.7913 15.5446L41.9035 15.7086L42.014 15.8739L42.1228 16.0405L42.23 16.2082L42.3355 16.3769L42.4393 16.5467L42.5415 16.7178L42.6419 16.8898L42.7406 17.063L42.8376 17.2372L42.9329 17.4124L43.0263 17.5886L43.1181 17.7659L43.208 17.9441L43.2962 18.1233L43.3825 18.3035L43.4672 18.4846L43.5499 18.6666L43.6308 18.8495L43.7099 19.0333L43.7871 19.218L43.8625 19.4034L43.936 19.5898L44.0076 19.7769L44.0773 19.9649L44.1452 20.1535L44.2111 20.3431L44.2752 20.5333L44.3373 20.7242L44.3975 20.9158L44.4558 21.1081L44.512 21.3011L44.5664 21.4947L44.6187 21.689L44.6692 21.8838L44.7175 22.0792L44.7641 22.2753L44.8085 22.4718L44.851 22.6689L44.8915 22.8664L44.9299 23.0646L44.9663 23.2631L45.0008 23.4622L45.0332 23.6615L45.0636 23.8614L45.0919 24.0617L45.1182 24.2622L45.1424 24.4633L45.1646 24.6645L45.1847 24.8662L45.2028 25.068L45.2189 25.2702L45.2328 25.4727L45.2446 25.6753L45.2544 25.8781L45.2622 26.0813L45.2678 26.2845L45.2714 26.4878L45.2729 26.6914L45.2723 26.895L45.2696 27.0987L45.2647 27.3026L45.2579 27.5063L45.2489 27.7102L45.2379 27.9141L45.2247 28.1179L45.2094 28.3218L45.192 28.5255L45.1725 28.7293L45.151 28.9329L45.1273 29.1363L45.1015 29.3397L45.0737 29.5428L45.0437 29.7459L45.0117 29.9487L44.9775 30.1512L44.9412 30.3536L44.903 30.5557L44.8625 30.7575L44.82 30.959L44.7753 31.1602L44.7286 31.3611L44.6799 31.5615L44.629 31.7616L44.5761 31.9612L44.5211 32.1605L44.464 32.3592L44.4049 32.5575L44.3437 32.7555L44.2804 32.9527L44.2151 33.1496L44.1478 33.3458L44.0783 33.5415L44.0069 33.7366L43.9334 33.9311L43.8579 34.1249L43.7803 34.3181L43.7008 34.5106L43.6193 34.7024L43.5357 34.8936L43.4501 35.0839L43.3626 35.2736L43.273 35.4625L43.1815 35.6505L43.0879 35.8378L42.9925 36.0242L42.895 36.2098L42.7958 36.3944L42.6944 36.5783L42.5912 36.7612L42.486 36.9432L42.3789 37.1242L42.27 37.3042L42.1591 37.4834L42.0463 37.6613L41.9316 37.8384L41.8152 38.0144L41.6968 38.1893L41.5766 38.3631L41.4545 38.5359L41.3307 38.7075L41.2049 38.878L41.0774 39.0474L40.9481 39.2156L40.8171 39.3824L40.6842 39.5482L40.5496 39.7127L40.4132 39.876L40.2751 40.038L40.1353 40.1987L39.9937 40.3581L39.8504 40.5163L39.7056 40.6731L39.559 40.8285L39.4107 40.9826L39.2608 41.1352L39.1092 41.2865L38.956 41.4363L38.8013 41.5847L38.645 41.7318L38.4871 41.8772L38.3276 42.0213L38.1665 42.1637L38.004 42.3047L37.8398 42.4443L37.6742 42.5822L37.5071 42.7185L37.3386 42.8533L37.1685 42.9865L36.9971 43.118L36.8242 43.2479L36.6498 43.3763L36.4742 43.503L36.2971 43.6279L36.1186 43.7513L35.9389 43.8729L35.7578 43.9927L35.5753 44.1109L35.3917 44.2274L35.2067 44.3421L35.0205 44.455L34.8329 44.5661L34.6442 44.6756L34.4544 44.7831L34.2632 44.8888L34.071 44.9928L33.8775 45.0947L33.683 45.195L33.4873 45.2934L33.2905 45.3898L33.0927 45.4844L32.8938 45.5772L32.6938 45.6679L32.4929 45.7568L32.2909 45.8437L32.088 45.9286L31.8842 46.0117L31.6794 46.0928L31.4736 46.1719L31.2669 46.249L31.0594 46.3241L30.8509 46.3972L30.6417 46.4683L30.4317 46.5374L30.2208 46.6044L30.0091 46.6694L29.7967 46.7324L29.5836 46.7933L29.3697 46.8521L29.1552 46.909L28.9399 46.9636L28.7241 47.0161L28.5076 47.0667L28.2904 47.1151L28.0727 47.1614L27.8544 47.2056L27.6355 47.2477L27.4162 47.2876L27.1964 47.3253L26.976 47.361L26.7552 47.3946L26.5338 47.4259L26.3122 47.4551L26.0902 47.4821L25.8676 47.507L25.6449 47.5296L25.4217 47.5502L25.1984 47.5685L24.9747 47.5847L24.7507 47.5987L24.5264 47.6105L24.302 47.6201L24.0774 47.6274L23.8525 47.6326L23.6276 47.6355L23.4025 47.6364L23.1774 47.6349L22.9521 47.6313L22.7267 47.6255L22.5014 47.6173L22.276 47.6071L22.0506 47.5946L21.8254 47.5799L21.6 47.563L21.3748 47.5438L21.1497 47.5224L20.9247 47.4989L20.6999 47.4732L20.4752 47.4452L20.2507 47.4149L20.0265 47.3824L19.8024 47.3478L19.5787 47.3109L19.3552 47.2719L19.132 47.2305L18.9092 47.187L18.6867 47.1414L18.4646 47.0934L18.2428 47.0433L18.0216 46.9911L17.8007 46.9366L17.5803 46.8799L17.3603 46.821L17.141 46.76L16.9221 46.6968L16.7037 46.6315L16.486 46.5639L16.2689 46.4941L16.0524 46.4223L15.8365 46.3482L15.6213 46.272L15.4068 46.1937L15.193 46.1132L14.9799 46.0306L14.7677 45.9459L14.5561 45.859L14.3454 45.77L14.1355 45.679L13.9264 45.5859L13.7182 45.4907L13.5109 45.3933L13.3046 45.2939L13.0992 45.1924L12.8946 45.0888L12.6911 44.9833L12.4886 44.8756L12.287 44.7661L12.0866 44.6544L11.8872 44.5407L11.6889 44.425L11.4917 44.3073L11.2956 44.1877L11.1006 44.066L10.9068 43.9425L10.7143 43.8169L10.5228 43.6895L10.3326 43.5599L10.1438 43.4286L9.95612 43.2954L9.76976 43.1602L9.58471 43.0233L9.40098 42.8843L9.21861 42.7435L9.03761 42.601L8.85798 42.4565L8.67978 42.3103L8.50299 42.1622L8.32764 42.0123L8.15376 41.8607L7.98137 41.7072L7.81048 41.552L7.64111 41.3952L7.47327 41.2365L7.307 41.0762L7.1423 40.9141L6.97919 40.7504L6.81769 40.585L6.65783 40.4179L6.49961 40.2493L6.34305 40.079L6.18818 39.907L6.03501 39.7335L5.88355 39.5585L5.73382 39.3818L5.58585 39.2037L5.43964 39.024L5.29521 38.8428L5.15259 38.6601L5.01178 38.476L4.8728 38.2903L4.73566 38.1032L4.60039 37.9147L4.46698 37.7248L4.33548 37.5336L4.20588 37.341L4.07821 37.1469L3.95248 36.9517L3.82868 36.755L3.70686 36.5571L3.58703 36.3579L3.46917 36.1574L3.35334 35.9557L3.23952 35.7528L3.12774 35.5487L3.018 35.3433L2.91032 35.1369L2.80472 34.9293L2.70119 34.7206L2.59978 34.5109L2.50047 34.2999L2.40328 34.088L2.30823 33.8749L2.21531 33.661L2.12456 33.4459L2.03598 33.23L1.94957 33.013L1.86535 32.7951L1.78335 32.5763L1.70354 32.3566L1.62595 32.1361L1.55059 31.9148L1.47747 31.6925L1.40661 31.4694L1.33799 31.2456L1.27165 31.0211L1.20759 30.7957L1.1458 30.5696L1.08631 30.3429L1.02912 30.1156L0.974238 29.8875L0.921682 29.6588L0.871443 29.4294L0.823532 29.1995L0.777961 28.9691L0.73473 28.7381L0.693851 28.5066L0.655336 28.2746L0.619172 28.0422L0.585384 27.8092L0.553971 27.5758L0.524946 27.3421L0.498296 27.1079L0.474033 26.8735L0.45217 26.6388L0.432705 26.4036L0.41564 26.1682L0.400985 25.9325L0.388741 25.6966L0.378909 25.4605L0.371487 25.2242L0.366488 24.9878L0.363923 24.7512L0.36377 24.5144ZM23.2652 7.17917L23.2113 2.62893L23.1601 2.63387L22.9252 2.65888L22.6908 2.68615L22.4566 2.71575L22.2233 2.74754L21.9902 2.78164L21.7574 2.81803L21.5253 2.85665L21.2934 2.89758L21.0627 2.94063L20.8317 2.9861L20.6023 3.03361L20.3725 3.08352L20.144 3.13554L19.9157 3.18988L19.6884 3.2463L19.4617 3.30499L19.2356 3.36586L19.0103 3.42894L18.786 3.49413L18.562 3.56156L18.3392 3.63109L18.117 3.70282L17.896 3.77655L17.6754 3.8526L17.4559 3.93068L17.2375 4.01083L17.0197 4.09317L16.8031 4.17751L16.5877 4.26389L16.3728 4.35249L16.159 4.4431L15.9463 4.53578L15.7347 4.63041L15.5243 4.7271L15.315 4.82573L15.1064 4.92654L14.8993 5.02919L14.6933 5.13384L14.4885 5.24047L14.2849 5.34906L14.0827 5.45952L13.8813 5.57201L13.6812 5.68646L13.4829 5.80254L13.2852 5.92089L13.0894 6.0408L12.8948 6.16259L12.7012 6.28637L12.5092 6.41197L12.3186 6.53939L12.1297 6.66831L11.9416 6.79952L11.7553 6.93213L11.5705 7.06658L11.3869 7.20286L11.2051 7.34077L11.0248 7.48033L10.8457 7.62185L10.6685 7.76472L10.4927 7.90947L10.3185 8.05579L10.1458 8.20381L9.97491 8.35326L9.80529 8.50459L9.63762 8.65727L9.47137 8.81171L9.30705 8.96745L9.14423 9.12488L8.98322 9.28372L8.82385 9.44415L8.66603 9.60622L8.51028 9.76941L8.35628 9.934L8.20365 10.1005L8.05313 10.2681L7.90446 10.4369L7.75731 10.6074L7.6123 10.779L7.4689 10.9521L7.32742 11.1265L7.1878 11.3022L7.05 11.4791L6.91423 11.6572L6.78024 11.8366L6.64809 12.0174L6.51806 12.1991L6.38978 12.3823L6.26354 12.5664L6.13925 12.7517L6.01682 12.9382L5.89646 13.1257L5.77808 13.3142L5.66168 13.5039L5.54737 13.6945L5.43493 13.8864L5.32451 14.0792L5.21627 14.2728L5.10996 14.4675L5.00569 14.6632L4.90354 14.8597L4.80339 15.0572L4.70539 15.2554L4.60944 15.4545L4.5156 15.6545L4.42381 15.8554L4.33419 16.0569L4.24661 16.2593L4.16116 16.4625L4.07791 16.6662L3.99673 16.8708L3.91767 17.0761L3.8408 17.282L3.76605 17.4885L3.69351 17.6956L3.62306 17.9035L3.5548 18.1118L3.48872 18.3208L3.42483 18.5301L3.36307 18.7402L3.30354 18.9506L3.24619 19.1615L3.19101 19.3728L3.13803 19.5847L3.08726 19.7969L3.03869 20.0095L2.99231 20.2224L2.94815 20.4358L2.90619 20.6493L2.86644 20.8632L2.8289 21.0774L2.79358 21.2919L2.76047 21.5065L2.72958 21.7213L2.70091 21.9364L2.67445 22.1516L2.65021 22.367L2.62819 22.5825L2.6084 22.7981L2.59081 23.0137L2.57545 23.2295L2.56231 23.4453L2.55137 23.6609L2.54266 23.8767L2.53616 24.0924L2.53189 24.3081L2.52981 24.5237L2.52995 24.7392L2.53229 24.9546L2.53684 25.1699L2.54359 25.385L2.55253 25.5998L2.56369 25.8146L2.57702 26.0289L2.59255 26.2432L2.61026 26.4571L2.63017 26.6708L2.65223 26.8842L2.67648 27.0972L2.7029 27.3099L2.73147 27.5222L2.76221 27.7341L2.79511 27.9456L2.83014 28.1566L2.86733 28.3672L2.90665 28.5773L2.9481 28.7868L2.99167 28.996L3.03736 29.2045L3.08517 29.4125L3.13507 29.6199L3.18707 29.8267L3.24118 30.0329L3.29734 30.2383L3.3556 30.4433L3.41592 30.6475L3.4783 30.851L3.54273 31.0538L3.60918 31.2558L3.67768 31.457L3.74821 31.6575L3.82075 31.8572L3.89528 32.056L3.97185 32.2541L4.05036 32.4512L4.13085 32.6475L4.21333 32.8428L4.29775 33.0372L4.38413 33.2308L4.47243 33.4235L4.56266 33.615L4.6548 33.8057L4.74885 33.9952L4.84478 34.1838L4.9426 34.3714L5.04227 34.5579L5.14381 34.7433L5.24719 34.9276L5.35239 35.1107L5.45942 35.2929L5.56826 35.4737L5.67884 35.6534L5.79128 35.832L5.90543 36.0093L6.02137 36.1855L6.13904 36.3604L6.25842 36.534L6.37951 36.7064L6.50234 36.8776L6.6268 37.0474L6.75299 37.2159L6.88076 37.383L7.01026 37.5488L7.1413 37.7132L7.27399 37.8763L7.40832 38.0381L7.54414 38.1984L7.68159 38.3572L7.82056 38.5146L7.96111 38.6706L8.10314 38.8251L8.24665 38.9781L8.39168 39.1296L8.53817 39.2797L8.68616 39.4283L8.83554 39.5752L8.98639 39.7207L9.13858 39.8645L9.29218 40.0069L9.4472 40.1477L9.60354 40.2868L9.76114 40.4242L9.92019 40.5601L10.0806 40.6944L10.242 40.827L10.405 40.958L10.569 41.0872L10.7343 41.2148L10.9009 41.3408L11.0687 41.465L11.2376 41.5875L11.4076 41.7082L11.5788 41.8273L11.7512 41.9446L11.9246 42.0601L12.0992 42.1739L12.2747 42.2859L12.4514 42.3961L12.6292 42.5046L12.8077 42.6112L12.9875 42.716L13.1681 42.8189L13.3497 42.9201L13.5322 43.0194L13.7157 43.1169L13.9 43.2125L14.0852 43.3063L14.2713 43.3981L14.4583 43.4882L14.6459 43.5764L14.8344 43.6626L15.0236 43.7469L15.2138 43.8294L15.4045 43.9099L15.5961 43.9886L15.7883 44.0653L15.9811 44.14L16.1747 44.2129L16.3688 44.2838L16.5635 44.3527L16.759 44.4197L16.955 44.4848L17.1515 44.5479L17.3484 44.609L17.5461 44.6682L17.7441 44.7254L17.9426 44.7806L18.1416 44.8339L18.341 44.8852L18.5408 44.9345L18.7409 44.9818L18.9416 45.0271L19.1425 45.0704L19.3437 45.1118L19.5453 45.1511L19.7471 45.1885L19.9492 45.2238L20.1515 45.2571L20.3541 45.2884L20.5569 45.3178L20.7599 45.3451L20.963 45.3705L21.1663 45.3938L21.3696 45.415L21.5732 45.4344L21.7768 45.4517L21.9804 45.467L22.184 45.4803L22.3878 45.4916L22.5914 45.5008L22.795 45.5081L22.9987 45.5135L23.2023 45.5167L23.4057 45.518L23.6091 45.5173L23.8123 45.5145L24.0154 45.5099L24.2183 45.5032L24.4211 45.4946L24.6237 45.4839L24.8259 45.4713L25.028 45.4567L25.2298 45.4402L25.4313 45.4216L25.6325 45.4011L25.8334 45.3786L26.0338 45.3543L26.234 45.3279L26.4337 45.2996L26.6331 45.2693L26.832 45.2372L27.0306 45.203L27.2286 45.167L27.4261 45.129L27.6231 45.0892L27.8197 45.0474L28.0156 45.0037L28.211 44.9581L28.4058 44.9106L28.6 44.8613L28.7936 44.8101L28.9865 44.757L29.1789 44.702L29.3704 44.6452L29.5614 44.5866L29.7516 44.5262L29.9411 44.4638L30.1299 44.3997L30.3177 44.3338L30.505 44.2659L30.6914 44.1964L30.8769 44.1251L31.0616 44.052L31.2454 43.9772L31.4283 43.9005L31.6105 43.8222L31.7916 43.742L31.9717 43.6603L32.1511 43.5767L32.3295 43.4914L32.5067 43.4045L32.6832 43.3158L32.8585 43.2255L33.0328 43.1335L33.2061 43.0398L33.3782 42.9445L33.5493 42.8476L33.7193 42.7492L33.8884 42.649L34.056 42.5473L34.2229 42.4439L34.3882 42.3391L34.5525 42.2326L34.7157 42.1246L34.8777 42.0149L35.0382 41.9041L35.1976 41.7914L35.3559 41.6774L35.5128 41.5619L35.6686 41.4448L35.8228 41.3265L35.9761 41.2064L36.1277 41.0852L36.278 40.9625L36.4273 40.8383L36.575 40.7127L36.7212 40.5859L36.8662 40.4575L37.0097 40.328L37.1519 40.1971L37.2926 40.0648L37.4317 39.9314L37.5697 39.7964L37.706 39.6603L37.8409 39.5229L37.9743 39.3843L38.1061 39.2446L38.2363 39.1038L38.3654 38.9612L38.4925 38.818L38.6184 38.6733L38.7425 38.5277L38.8652 38.3808L38.9862 38.233L39.1055 38.084L39.2235 37.9338L39.3397 37.7827L39.4544 37.6304L39.5673 37.4772L39.6787 37.3229L39.7886 37.1675L39.8964 37.0115L40.0029 36.8542L40.1075 36.6962L40.2105 36.537L40.3121 36.3768L40.4116 36.2161L40.5094 36.0544L40.6057 35.8915L40.7001 35.7282L40.7928 35.5639L40.8839 35.3986L40.9731 35.2329L41.0606 35.0661L41.1464 34.8985L41.2302 34.7308L41.3125 34.5617L41.393 34.392L41.4715 34.2218L41.5484 34.0509L41.6234 33.8793L41.6966 33.7072L41.7681 33.5342L41.8377 33.3607L41.9054 33.1871L41.9713 33.0122L42.0354 32.8373L42.0978 32.6615L42.1583 32.4855L42.2169 32.3088L42.2735 32.1321L42.3286 31.9541L42.3815 31.7764L42.4327 31.598L42.4821 31.4195L42.5296 31.2402L42.5751 31.0609L42.619 30.881L42.6608 30.7008L42.7009 30.5204L42.739 30.3396L42.7752 30.1589L42.8096 29.9774L42.8421 29.7963L42.8727 29.6146L42.9014 29.4327L42.9283 29.2508L42.9533 29.0686L42.9764 28.8866L42.9976 28.7038L43.0169 28.5216L43.0344 28.3389L43.0499 28.1566L43.0636 27.9736L43.0754 27.7914L43.0853 27.6086L43.0934 27.4256L43.0995 27.2431L43.1039 27.061L43.1062 26.8782L43.1068 26.6957L43.1055 26.5135L43.1023 26.3314L43.0973 26.1493L43.0903 25.9678L43.0815 25.7857L43.0709 25.6044L43.0584 25.4231L43.0441 25.2424L43.0279 25.0614L43.0099 24.8812L42.9901 24.7008L42.9683 24.5211L42.9448 24.3414L42.9195 24.1624L42.8922 23.9832L42.8633 23.8049L42.8325 23.6271L42.7999 23.4493L42.7654 23.272L42.7292 23.0954L42.6912 22.9188L42.6516 22.7434L42.6099 22.5678L42.5667 22.3933L42.5215 22.2186L42.4747 22.0453L42.4261 21.8721L42.3758 21.6994L42.3238 21.5276L42.27 21.3565L42.2143 21.1855L42.1572 21.0158L42.0982 20.8462L42.0376 20.6777L41.9752 20.5095L41.9113 20.3425L41.8455 20.1758L41.7781 20.0099L41.7092 19.8452L41.6387 19.6812L41.5661 19.5174L41.4925 19.3551L41.4167 19.193L41.3397 19.0323L41.2609 18.8723L41.1805 18.7129L41.0987 18.5548L41.0151 18.3974L40.9299 18.2406L40.8437 18.0855L40.7554 17.9307L40.6658 17.7771L40.5744 17.6243L40.482 17.4731L40.3876 17.3221L40.2921 17.1726L40.1948 17.0238L40.0963 16.8764L39.9964 16.7302L39.8948 16.5846L39.7918 16.4403L39.6876 16.297L39.5818 16.1551L39.4747 16.014L39.3663 15.8743L39.2565 15.7355L39.1453 15.5981L39.0327 15.4618L38.9188 15.3266L38.8036 15.1927L38.6872 15.06L38.5696 14.9286L38.4506 14.7984L38.33 14.6692L38.2089 14.5418L38.0858 14.4151L37.962 14.2902L37.8369 14.1662L37.7106 14.0438L37.5828 13.9223L37.4544 13.8027L37.3244 13.684L37.1934 13.5668L37.0616 13.4511L36.9285 13.3367L36.7939 13.2234L36.6586 13.1117L36.5223 13.0014L36.3849 12.8926L36.2464 12.785L36.1072 12.6792L35.9664 12.5743L35.8252 12.4714L35.6828 12.3697L35.5393 12.2694L35.3952 12.1707L35.2496 12.0732L35.104 11.9777L34.9568 11.8833L34.809 11.7905L34.6601 11.6992L34.5106 11.6093L34.3603 11.5212L34.2094 11.4347L34.0571 11.3492L33.9047 11.2658L33.7511 11.1837L33.5969 11.1032L33.442 11.0243L33.2863 10.9469L33.1299 10.8711L32.973 10.797L32.8152 10.7243L32.6571 10.6534L32.4981 10.5839L32.3335 10.5139L32.1787 10.45L32.0176 10.3852L31.8567 10.3225L31.6946 10.2609L31.5325 10.2013L31.3696 10.1432L31.2064 10.0868L31.0425 10.0319L30.8784 9.97879L30.7137 9.92726L30.5486 9.87739L30.3834 9.82929L30.2174 9.78268L30.0509 9.73767L29.8846 9.6945L29.718 9.65297L29.5503 9.61297L29.3832 9.57481L29.2153 9.53817L29.0473 9.50331L28.8788 9.47003L28.7105 9.4385L28.5417 9.4086L28.3731 9.38043L28.2036 9.35384L28.0346 9.32901L27.8653 9.30583L27.6957 9.2843L27.5261 9.26447L27.3565 9.24634L27.1868 9.22987L27.017 9.21507L26.847 9.20194L26.677 9.19048L26.5074 9.18072L26.3377 9.17262L26.1674 9.16618L25.998 9.16143L25.8283 9.15833L25.6587 9.15692L25.4889 9.15715L25.4548 9.15754L25.5084 13.6747L25.6047 13.6742L25.7287 13.6749L25.8526 13.6768L25.9767 13.68L26.1009 13.6844L26.2251 13.6901L26.3494 13.6969L26.4737 13.7049L26.598 13.7143L26.7223 13.7248L26.8467 13.7366L26.9709 13.7496L27.0952 13.7639L27.2194 13.7794L27.3435 13.7961L27.4676 13.8141L27.5916 13.8333L27.7154 13.8537L27.8393 13.8755L27.9629 13.8984L28.0864 13.9226L28.2098 13.948L28.333 13.9746L28.4561 14.0025L28.5789 14.0317L28.7015 14.0621L28.8238 14.0936L28.946 14.1265L29.068 14.1605L29.1897 14.1959L29.3112 14.2324L29.4324 14.2701L29.5531 14.3091L29.6737 14.3493L29.794 14.3908L29.9138 14.4334L30.0334 14.4773L30.1526 14.5223L30.2715 14.5686L30.3899 14.6161L30.5079 14.6648L30.6255 14.7148L30.7428 14.7659L30.8595 14.8182L30.9758 14.8716L31.0916 14.9264L31.2071 14.9823L31.322 15.0393L31.4364 15.0976L31.5503 15.157L31.6636 15.2176L31.7765 15.2794L31.8888 15.3422L32.0005 15.4063L32.1117 15.4715L32.2223 15.5379L32.3322 15.6054L32.4415 15.6741L32.5502 15.7439L32.6584 15.8148L32.7658 15.8868L32.8726 15.96L32.9788 16.0343L33.0842 16.1096L33.1889 16.1861L33.2929 16.2637L33.3963 16.3423L33.4988 16.4221L33.6006 16.5029L33.7017 16.5847L33.802 16.6676L33.9015 16.7517L34.0003 16.8366L34.0983 16.9227L34.1954 17.0098L34.2918 17.0979L34.3871 17.1871L34.4818 17.2772L34.5755 17.3683L34.6684 17.4605L34.7605 17.5537L34.8516 17.6478L34.9419 17.7429L35.0311 17.8389L35.1195 17.936L35.207 18.0339L35.2935 18.1327L35.379 18.2326L35.4637 18.3333L35.5473 18.4349L35.6299 18.5375L35.7116 18.6409L35.7922 18.7453L35.8719 18.8505L35.9505 18.9566L36.028 19.0634L36.1046 19.1712L36.18 19.2798L36.2544 19.3893L36.3277 19.4995L36.3999 19.6105L36.471 19.7224L36.5411 19.835L36.6101 19.9484L36.678 20.0625L36.7446 20.1775L36.8102 20.2931L36.8746 20.4095L36.9379 20.5266L37 20.6445L37.061 20.763L37.1207 20.8822L37.1793 21.0022L37.2367 21.1227L37.2929 21.2439L37.3478 21.3658L37.4016 21.4883L37.4542 21.6114L37.5055 21.7352L37.5556 21.8595L37.6044 21.9844L37.6519 22.1098L37.6982 22.2359L37.7433 22.3625L37.7871 22.4896L37.8297 22.6173L37.8708 22.7455L37.9107 22.8741L37.9494 23.0033L37.9867 23.1329L38.0228 23.263L38.0574 23.3936L38.0908 23.5246L38.1229 23.656L38.1536 23.7877L38.183 23.92L38.211 24.0526L38.2377 24.1855L38.263 24.3189L38.287 24.4526L38.3097 24.5867L38.331 24.7209L38.3508 24.8556L38.3694 24.9905L38.3865 25.1257L38.4024 25.2612L38.4167 25.397L38.4297 25.5329L38.4414 25.6692L38.4515 25.8056L38.4604 25.9422L38.4677 26.0789L38.4737 26.2159L38.4784 26.3531L38.4816 26.4903L38.4833 26.6278L38.4837 26.7653L38.4826 26.9029L38.4801 27.0406L38.4762 27.1784L38.4709 27.3163L38.4642 27.4541L38.456 27.592L38.4464 27.7301L38.4355 27.868L38.4229 28.0059L38.4091 28.1438L38.3937 28.2816L38.3771 28.4195L38.3589 28.5572L38.3393 28.6949L38.3182 28.8325L38.2958 28.9699L38.2719 29.1072L38.2465 29.2444L38.2198 29.3815L38.1915 29.5184L38.1619 29.6551L38.1309 29.7916L38.0984 29.9279L38.0645 30.0639L38.0291 30.1998L37.9924 30.3354L37.9542 30.4707L37.9146 30.6057L37.8736 30.7404L37.8312 30.8749L37.7872 31.009L37.742 31.1427L37.6953 31.2761L37.6473 31.4092L37.5978 31.5418L37.5468 31.674L37.4946 31.8059L37.441 31.9373L37.3859 32.0684L37.3294 32.1989L37.2716 32.329L37.2124 32.4586L37.1518 32.5877L37.0898 32.7163L37.0265 32.8444L36.9617 32.9719L36.8957 33.0989L36.8283 33.2253L36.7595 33.3511L36.6894 33.4764L36.6181 33.6011L36.5453 33.7251L36.4712 33.8486L36.3958 33.9712L36.3191 34.0934L36.2409 34.2148L36.1616 34.3356L36.0809 34.4555L35.999 34.5749L35.9158 34.6936L35.8313 34.8114L35.7455 34.9285L35.6585 35.0449L35.5703 35.1605L35.4807 35.2753L35.3899 35.3892L35.2978 35.5024L35.2046 35.6147L35.1102 35.7262L35.0144 35.8369L34.9175 35.9466L34.8194 36.0555L34.7202 36.1635L34.6197 36.2706L34.5182 36.3768L34.4154 36.482L34.3115 36.5864L34.2063 36.6897L34.1002 36.7921L33.9928 36.8935L33.8844 36.9939L33.7748 37.0934L33.6641 37.1917L33.5524 37.2891L33.4396 37.3855L33.3257 37.4808L33.2108 37.5751L33.0948 37.6682L32.9777 37.7603L32.8596 37.8513L32.7406 37.9412L32.6206 38.03L32.4994 38.1176L32.3775 38.2043L32.2544 38.2896L32.1305 38.3739L32.0054 38.4569L31.8796 38.5388L31.7527 38.6196L31.6251 38.6991L31.4964 38.7773L31.367 38.8545L31.2365 38.9304L31.1053 39.005L30.9732 39.0783L30.8403 39.1506L30.7065 39.2215L30.5719 39.2911L30.4364 39.3594L30.3003 39.4264L30.1633 39.4922L30.0255 39.5566L29.887 39.6197L29.7478 39.6815L29.6079 39.7421L29.4671 39.8011L29.3258 39.8589L29.1837 39.9154L29.0409 39.9705L28.8976 40.0243L28.7535 40.0766L28.6089 40.1276L28.4635 40.1771L28.3177 40.2253L28.1711 40.272L28.0241 40.3174L27.8765 40.3613L27.7283 40.4038L27.5796 40.4449L27.4304 40.4845L27.2806 40.5226L27.1304 40.5594L26.9797 40.5947L26.8285 40.6285L26.677 40.6609L26.5249 40.6918L26.3724 40.7212L26.2196 40.7492L26.0663 40.7757L25.9127 40.8006L25.7588 40.824L25.6045 40.846L25.4498 40.8664L25.2948 40.8855L25.1396 40.9028L24.9841 40.9188L24.8284 40.9332L24.6724 40.9461L24.5161 40.9574L24.3596 40.9672L24.2029 40.9755L24.0461 40.9823L23.889 40.9875L23.7319 40.9911L23.5746 40.9932L23.417 40.9938L23.2595 40.9929L23.102 40.9903L22.9442 40.9863L22.7864 40.9806L22.6286 40.9734L22.4707 40.9646L22.313 40.9544L22.1551 40.9425L21.9973 40.9291L21.8395 40.9141L21.6818 40.8975L21.5241 40.8794L21.3666 40.8598L21.209 40.8385L21.0517 40.8157L20.8946 40.7914L20.7375 40.7655L20.5805 40.738L20.4238 40.709L20.2674 40.6784L20.1111 40.6461L19.955 40.6125L19.7992 40.5772L19.6437 40.5404L19.4884 40.502L19.3335 40.462L19.1788 40.4205L19.0244 40.3775L18.8706 40.333L18.7169 40.2869L18.5637 40.2392L18.4108 40.19L18.2585 40.1393L18.1064 40.087L17.9549 40.0333L17.8039 39.9779L17.6532 39.9211L17.5031 39.8627L17.3535 39.8029L17.2043 39.7415L17.0558 39.6786L16.9078 39.6143L16.7604 39.5484L16.6135 39.481L16.4673 39.4122L16.3217 39.3419L16.1767 39.27L16.0323 39.1968L15.8887 39.1221L15.7457 39.0458L15.6034 38.9682L15.4619 38.8891L15.321 38.8085L15.1808 38.7266L15.0415 38.6432L14.9029 38.5583L14.7651 38.4722L14.6281 38.3845L14.4919 38.2955L14.3566 38.205L14.2221 38.1132L14.0885 38.02L13.9557 37.9255L13.8239 37.8295L13.6929 37.7323L13.5628 37.6336L13.4337 37.5336L13.3056 37.4323L13.1785 37.3296L13.0522 37.2257L12.927 37.1204L12.8028 37.0139L12.6796 36.906L12.5574 36.797L12.4363 36.6866L12.3163 36.575L12.1973 36.4622L12.0794 36.348L11.9626 36.2326L11.847 36.1161L11.7325 35.9983L11.6191 35.8794L11.5068 35.7592L11.3958 35.638L11.2859 35.5154L11.1772 35.3918L11.0697 35.267L10.9634 35.1411L10.8584 35.0141L10.7546 34.8858L10.6521 34.7567L10.5508 34.6263L10.4508 34.4949L10.3521 34.3624L10.2546 34.229L10.1586 34.0944L10.0639 33.9588L9.97042 33.8222L9.87835 33.6846L9.78766 33.5461L9.69833 33.4066L9.61036 33.266L9.52381 33.1246L9.43865 32.9822L9.3549 32.8389L9.27258 32.6946L9.19168 32.5496L9.11224 32.4036L9.03425 32.2568L8.95772 32.109L8.88266 31.9605L8.80909 31.8111L8.73701 31.6609L8.66643 31.51L8.59737 31.3581L8.52982 31.2057L8.4638 31.0524L8.39932 30.8983L8.33638 30.7436L8.275 30.5882L8.21518 30.4319L8.15693 30.2751L8.10025 30.1177L8.04516 29.9594L7.99167 29.8007L7.93978 29.6413L7.88949 29.4813L7.84083 29.3208L7.79378 29.1596L7.74836 28.9979L7.70457 28.8356L7.66244 28.6728L7.62195 28.5096L7.58311 28.3458L7.54594 28.1815L7.51043 28.0168L7.47659 27.8517L7.44443 27.6861L7.41395 27.52L7.38517 27.3536L7.35808 27.1869L7.33268 27.0198L7.30899 26.8523L7.287 26.6845L7.26674 26.5163L7.24818 26.3479L7.23134 26.1793L7.21622 26.0103L7.20285 25.841L7.19119 25.6717L7.18127 25.502L7.17309 25.3321L7.16665 25.1622L7.16195 24.992L7.159 24.8217L7.15779 24.6512L7.15835 24.4806L7.16064 24.31L7.16471 24.1393L7.17051 23.9686L7.17809 23.7977L7.18742 23.6269L7.19851 23.456L7.21137 23.2852L7.22597 23.1143L7.24235 22.9437L7.26051 22.7729L7.28041 22.6024L7.30208 22.4318L7.32552 22.2614L7.35072 22.0911L7.37768 21.9211L7.4064 21.7511L7.43689 21.5814L7.46915 21.4118L7.50316 21.2425L7.53892 21.0735L7.57645 20.9046L7.61574 20.7361L7.65677 20.5678L7.69955 20.3998L7.7441 20.2322L7.79038 20.0649L7.8384 19.898L7.88818 19.7315L7.93969 19.5653L7.99294 19.3995L8.04792 19.2343L8.10462 19.0695L8.16306 18.9051L8.22322 18.7411L8.28508 18.5777L8.34867 18.4148L8.41396 18.2525L8.48096 18.0907L8.54966 17.9295L8.62005 17.7687L8.69214 17.6087L8.7659 17.4493L8.84134 17.2905L8.91846 17.1323L8.99725 16.9749L9.07769 16.8181L9.1598 16.6621L9.24354 16.5067L9.32894 16.3521L9.41597 16.1982L9.50461 16.0451L9.59489 15.8928L9.68679 15.7413L9.78029 15.5907L9.8754 15.4408L9.97207 15.2918L10.0704 15.1437L10.1701 14.9964L10.2717 14.8501L10.3746 14.7046L10.4791 14.5601L10.5852 14.4166L10.6927 14.274L10.8019 14.1324L10.9126 13.9918L11.0247 13.8522L11.1383 13.7137L11.2534 13.5761L11.37 13.4396L11.4881 13.3042L11.6076 13.1699L11.7286 13.0367L11.8509 12.9046L11.9748 12.7737L12.1001 12.6438L12.2266 12.5152L12.3546 12.3877L12.484 12.2614L12.6149 12.1363L12.747 12.0123L12.8804 11.8898L13.0153 11.7683L13.1514 11.6482L13.2887 11.5293L13.4275 11.4117L13.5675 11.2955L13.7087 11.1805L13.8513 11.0668L13.9951 10.9545L14.1401 10.8435L14.2863 10.734L14.4338 10.6257L14.5823 10.5189L14.7321 10.4135L14.8831 10.3095L15.0352 10.2069L15.1884 10.1058L15.3428 10.0061L15.4983 9.90788L15.6548 9.81114L15.8125 9.71587L15.9712 9.6221L16.1309 9.52985L16.2917 9.43911L16.4535 9.3499L16.6163 9.26224L16.7801 9.17613L16.9448 9.09159L17.1105 9.00861L17.2771 8.92722L17.4447 8.84742L17.6132 8.76923L17.7826 8.69265L17.9529 8.61769L18.124 8.54437L18.296 8.47269L18.4688 8.40266L18.6422 8.33429L18.8167 8.26759L18.9918 8.20256L19.1678 8.13923L19.3445 8.07759L19.5219 8.01764L19.7 7.95942L19.8787 7.90291L20.0582 7.84812L20.2383 7.79507L20.4191 7.74377L20.6004 7.6942L20.7824 7.6464L20.965 7.60036L21.1482 7.55608L21.3318 7.5136L21.5161 7.47287L21.7008 7.43394L21.886 7.39681L22.0718 7.36149L22.2579 7.32796L22.4445 7.29624L22.6316 7.26634L22.819 7.23826L23.0068 7.21201L23.195 7.18758L23.2652 7.17917ZM23.3446 13.879L23.2905 9.31223L23.1362 9.33379L22.9704 9.35864L22.8045 9.38515L22.6396 9.41317L22.4745 9.4429L22.3103 9.47416L22.1463 9.50703L21.983 9.54143L21.82 9.57747L21.6574 9.6151L21.4953 9.65427L21.3338 9.695L21.1725 9.73735L21.0176 9.77965L20.8525 9.82657L20.6931 9.87349L20.5343 9.92194L20.3764 9.97182L20.2189 10.0233L20.062 10.0764L19.9057 10.1309L19.7503 10.1868L19.5955 10.2443L19.4414 10.3032L19.2879 10.3637L19.1355 10.4255L18.9832 10.489L18.832 10.5537L18.6816 10.6199L18.5322 10.6875L18.3832 10.7567L18.235 10.8272L18.0881 10.899L17.9414 10.9723L17.7963 11.0469L17.6514 11.1231L17.5079 11.2003L17.3647 11.2794L17.2229 11.3593L17.082 11.4407L16.9418 11.5235L16.8027 11.6076L16.6644 11.6931L16.5274 11.7796L16.391 11.8677L16.2559 11.9569L16.1218 12.0473L15.9886 12.1392L15.8562 12.2323L15.7254 12.3262L15.5953 12.4218L15.4662 12.5185L15.3384 12.6164L15.2117 12.7153L15.0858 12.8156L14.9614 12.9169L14.838 13.0194L14.7155 13.1233L14.5946 13.2278L14.4746 13.3339L14.3557 13.4409L14.2381 13.5489L14.1218 13.658L14.0063 13.7684L13.8925 13.8795L13.7798 13.9918L13.6681 14.1052L13.5578 14.2195L13.4487 14.335L13.341 14.4513L13.2345 14.5685L13.1292 14.6868L13.0251 14.8062L12.9227 14.9261L12.8213 15.0473L12.7212 15.1693L12.6225 15.2921L12.5253 15.4157L12.4291 15.5405L12.3344 15.6659L12.241 15.7923L12.1491 15.9194L12.0585 16.0474L11.9693 16.176L11.8815 16.3055L11.795 16.4359L11.7099 16.567L11.6264 16.6986L11.5442 16.8311L11.4634 16.9645L11.384 17.0983L11.3061 17.2329L11.2295 17.3682L11.1546 17.5039L11.081 17.6405L11.0086 17.7778L10.9381 17.9154L10.8688 18.0539L10.8011 18.1929L10.7348 18.3322L10.6701 18.4724L10.6067 18.6129L10.5449 18.754L10.4845 18.8956L10.4258 19.0377L10.3685 19.1802L10.3126 19.3233L10.2582 19.4668L10.2055 19.6106L10.1541 19.755L10.1044 19.8996L10.0561 20.0447L10.0094 20.1902L9.96415 20.336L9.92054 20.4821L9.87835 20.6285L9.83782 20.7752L9.79871 20.9223L9.76118 21.0696L9.72519 21.2172L9.69075 21.365L9.65784 21.513L9.62646 21.6613L9.59667 21.8097L9.56839 21.9583L9.54165 22.1072L9.51649 22.2561L9.49284 22.4053L9.47078 22.5543L9.45023 22.7037L9.43125 22.853L9.4138 23.0025L9.39791 23.152L9.38356 23.3017L9.37076 23.4513L9.35951 23.6008L9.3498 23.7505L9.34162 23.9001L9.33499 24.0496L9.32991 24.1991L9.32635 24.3485L9.32434 24.4979L9.32386 24.6473L9.32491 24.7964L9.3275 24.9455L9.33161 25.0944L9.33723 25.243L9.3444 25.3917L9.35307 25.5401L9.36326 25.6882L9.37497 25.8363L9.38818 25.984L9.40291 26.1315L9.41913 26.2788L9.43685 26.4258L9.45608 26.5726L9.47678 26.7189L9.49899 26.8651L9.52266 27.0107L9.54782 27.1562L9.57446 27.3013L9.60255 27.4458L9.63212 27.5902L9.66313 27.7341L9.69562 27.8777L9.72952 28.0205L9.7649 28.1632L9.8017 28.3054L9.83994 28.4471L9.87953 28.5882L9.92066 28.7289L9.96309 28.8691L10.0071 29.0088L10.0523 29.148L10.099 29.2865L10.1471 29.4244L10.1965 29.5619L10.2473 29.6987L10.2996 29.835L10.3531 29.9705L10.4079 30.1055L10.4642 30.2399L10.5217 30.3735L10.5807 30.5065L10.6409 30.6389L10.7024 30.7704L10.7653 30.9013L10.8294 31.0316L10.8948 31.161L10.9615 31.2898L11.0294 31.4178L11.0987 31.545L11.1691 31.6714L11.2409 31.797L11.3138 31.9218L11.388 32.0458L11.4634 32.1691L11.54 32.2914L11.6178 32.4129L11.6968 32.5337L11.7768 32.6533L11.8583 32.7723L11.9406 32.8902L12.0243 33.0073L12.109 33.1235L12.195 33.2387L12.2819 33.353L12.3701 33.4665L12.4592 33.5789L12.5495 33.6903L12.6409 33.8008L12.7333 33.9104L12.8268 34.0187L12.9213 34.1264L13.0168 34.2328L13.1133 34.3383L13.2108 34.4427L13.3094 34.5461L13.4089 34.6484L13.5095 34.7497L13.6109 34.8499L13.7134 34.9491L13.8168 35.0472L13.9209 35.1441L14.0262 35.24L14.1322 35.3347L14.2391 35.4283L14.347 35.5208L14.4558 35.6122L14.5653 35.7025L14.6757 35.7915L14.7869 35.8794L14.899 35.9661L15.0118 36.0518L15.1255 36.1362L15.2398 36.2194L15.3549 36.3014L15.4708 36.3823L15.5875 36.4619L15.705 36.5404L15.823 36.6176L15.9418 36.6936L16.0613 36.7684L16.1813 36.8419L16.3021 36.9142L16.4236 36.9852L16.5456 37.055L16.6684 37.1235L16.7915 37.1907L16.9155 37.2568L17.0399 37.3216L17.1649 37.3849L17.2905 37.4472L17.4167 37.5081L17.5433 37.5677L17.6703 37.626L17.7981 37.6831L17.9261 37.7388L18.0546 37.7931L18.1837 37.8463L18.3132 37.8981L18.443 37.9485L18.5733 37.9977L18.7041 38.0456L18.8351 38.0921L18.9665 38.1373L19.0984 38.1812L19.2306 38.2237L19.363 38.2649L19.4959 38.3047L19.6289 38.3433L19.7623 38.3805L19.8959 38.4163L20.0298 38.4509L20.164 38.484L20.2983 38.5158L20.4329 38.5463L20.5678 38.5755L20.7027 38.6033L20.8378 38.6296L20.9733 38.6547L21.1086 38.6784L21.2443 38.7009L21.3799 38.7218L21.5157 38.7415L21.6516 38.7599L21.7875 38.7769L21.9236 38.7925L22.0596 38.8068L22.1957 38.8196L22.3319 38.8312L22.468 38.8414L22.6042 38.8504L22.7402 38.8578L22.8762 38.8641L23.0124 38.8689L23.1483 38.8725L23.2841 38.8746L23.4199 38.8754L23.5555 38.875L23.6911 38.8731L23.8265 38.87L23.9617 38.8655L24.0969 38.8597L24.2318 38.8525L24.3665 38.8441L24.501 38.8343L24.6354 38.8232L24.7694 38.8108L24.9033 38.7971L25.0369 38.7821L25.1703 38.7658L25.3033 38.7481L25.436 38.7294L25.5685 38.7091L25.7007 38.6876L25.8323 38.6649L25.9638 38.6408L26.0949 38.6155L26.2256 38.5891L26.3561 38.5612L26.4859 38.5321L26.6154 38.5019L26.7444 38.4702L26.8731 38.4374L27.0014 38.4034L27.1291 38.3681L27.2564 38.3316L27.3832 38.2939L27.5094 38.255L27.6352 38.2148L27.7606 38.1734L27.8852 38.1309L28.0095 38.0872L28.1331 38.0422L28.2561 37.9962L28.3785 37.9489L28.5004 37.9004L28.6218 37.8508L28.7424 37.8001L28.8624 37.7482L28.9819 37.6953L29.1005 37.6411L29.2187 37.5858L29.3362 37.5295L29.4527 37.4721L29.569 37.4134L29.6842 37.3538L29.799 37.293L29.9127 37.2313L30.0259 37.1684L30.1384 37.1045L30.2499 37.0395L30.3609 36.9734L30.4711 36.9064L30.5803 36.8383L30.689 36.7692L30.7965 36.6992L30.9035 36.6281L31.0097 36.5559L31.1149 36.4828L31.2192 36.409L31.3229 36.3338L31.4255 36.2581L31.5274 36.1811L31.6284 36.1032L31.7282 36.0247L31.8276 35.9449L31.9259 35.8643L32.0229 35.783L32.1196 35.7004L32.215 35.6173L32.3094 35.5334L32.4032 35.4482L32.4956 35.3626L32.5873 35.276L32.6781 35.1885L32.7677 35.1003L32.8564 35.0112L32.9443 34.9214L33.031 34.8308L33.1166 34.7394L33.2013 34.6472L33.2851 34.5543L33.3676 34.4609L33.4494 34.3663L33.5298 34.2713L33.6093 34.1756L33.6879 34.0789L33.7651 33.982L33.8415 33.884L33.9168 33.7856L33.991 33.6863L34.064 33.5866L34.1359 33.4863L34.2069 33.3851L34.2766 33.2835L34.3453 33.1813L34.413 33.0784L34.4792 32.9752L34.5447 32.8712L34.6088 32.7666L34.672 32.6617L34.7338 32.5561L34.7947 32.4499L34.8542 32.3436L34.9128 32.2363L34.9701 32.1289L35.0261 32.021L35.0813 31.9123L35.135 31.8038L35.1878 31.6941L35.2391 31.5848L35.2897 31.4743L35.3386 31.364L35.3867 31.2528L35.4335 31.1417L35.479 31.0302L35.5235 30.9181L35.5667 30.8057L35.6085 30.6933L35.6496 30.5802L35.689 30.467L35.7274 30.3536L35.7647 30.2398L35.8007 30.1256L35.8356 30.0113L35.8691 29.8969L35.9015 29.782L35.9326 29.6672L35.9626 29.5519L35.9913 29.4366L36.0189 29.3213L36.0452 29.2053L36.0703 29.0895L36.0943 28.9736L36.1168 28.8576L36.1384 28.7415L36.1586 28.6248L36.1776 28.5086L36.1954 28.3921L36.212 28.2755L36.2273 28.1591L36.2415 28.0424L36.2545 27.9254L36.2662 27.8092L36.2769 27.6921L36.2862 27.5755L36.2942 27.4591L36.3012 27.3423L36.3069 27.2258L36.3114 27.1094L36.3147 26.9926L36.3167 26.8765L36.3176 26.76L36.3173 26.6438L36.3159 26.5277L36.3131 26.412L36.3092 26.296L36.3042 26.1803L36.2979 26.0651L36.2905 25.9495L36.2818 25.8343L36.2721 25.7197L36.2611 25.6047L36.249 25.4904L36.2356 25.3759L36.2212 25.2619L36.2056 25.1481L36.1888 25.0344L36.1709 24.9212L36.1518 24.8084L36.1316 24.6957L36.1102 24.5835L36.0877 24.4711L36.064 24.3595L36.0393 24.2483L36.0134 24.1372L35.9864 24.0264L35.9584 23.9164L35.9291 23.8062L35.8988 23.6969L35.8674 23.5877L35.8349 23.4792L35.8013 23.3708L35.7666 23.2629L35.7309 23.1557L35.6941 23.0489L35.6561 22.9422L35.6173 22.8364L35.5772 22.7308L35.5362 22.626L35.4941 22.5214L35.451 22.4173L35.4069 22.3141L35.3617 22.2111L35.3156 22.1089L35.2684 22.0072L35.2202 21.9058L35.1709 21.805L35.1209 21.7051L35.0696 21.6055L35.0176 21.5068L34.9646 21.4087L34.9104 21.3108L34.8556 21.214L34.7996 21.1175L34.7427 21.0219L34.6848 20.9267L34.6263 20.8325L34.5665 20.7385L34.5061 20.6456L34.4447 20.5533L34.3824 20.4618L34.3191 20.3706L34.255 20.2805L34.1902 20.1911L34.1243 20.1021L34.0578 20.0142L33.9902 19.9269L33.9221 19.8405L33.8528 19.7546L33.7829 19.6696L33.7121 19.5853L33.6406 19.5018L33.5684 19.4193L33.4951 19.3373L33.4214 19.2563L33.3467 19.1759L33.2715 19.0968L33.1952 19.0179L33.1185 18.9403L33.0407 18.8631L32.9625 18.7871L32.8836 18.712L32.804 18.6375L32.7235 18.5639L32.6424 18.4913L32.5608 18.4196L32.4781 18.3484L32.3955 18.2787L32.3117 18.2093L32.2275 18.1411L32.1426 18.0739L32.0571 18.0072L31.971 17.9418L31.8846 17.8774L31.7972 17.8135L31.7091 17.7505L31.6211 17.689L31.5319 17.6279L31.4428 17.5682L31.3528 17.5091L31.2623 17.451L31.1712 17.3938L31.0799 17.3377L30.9878 17.2824L30.8955 17.2283L30.8023 17.1749L30.7093 17.1228L30.6155 17.0715L30.5212 17.021L30.4265 16.9716L30.3316 16.9234L30.2361 16.8759L30.1402 16.8294L30.0441 16.7841L29.9478 16.7397L29.8504 16.6961L29.7535 16.6538L29.6558 16.6125L29.5578 16.5719L29.4595 16.5326L29.3612 16.4943L29.2624 16.4569L29.163 16.4204L29.0639 16.3852L28.9641 16.3508L28.8641 16.3175L28.7643 16.2852L28.6639 16.254L28.5636 16.2238L28.4624 16.1944L28.3616 16.1663L28.2606 16.1391L28.1593 16.113L28.0579 16.0878L27.956 16.0637L27.8544 16.0407L27.7528 16.0187L27.6507 15.9977L27.5483 15.9776L27.4466 15.9588L27.3441 15.9408L27.2419 15.9239L27.1392 15.908L27.0371 15.8932L26.9341 15.8793L26.8319 15.8666L26.7293 15.8548L26.6267 15.844L26.5243 15.8343L26.4216 15.8256L26.3193 15.8179L26.2165 15.8113L26.1142 15.8056L26.0121 15.801L25.9092 15.7974L25.8073 15.7948L25.7051 15.7932L25.6032 15.7926L25.5334 15.7929L25.5863 20.2547L25.6178 20.2548L25.6764 20.2556L25.7352 20.2571L25.794 20.259L25.8529 20.2617L25.9118 20.2649L25.9708 20.2686L26.0299 20.2731L26.089 20.2782L26.1482 20.2839L26.2074 20.2902L26.2666 20.297L26.326 20.3046L26.3852 20.3127L26.4445 20.3215L26.5038 20.3309L26.5631 20.341L26.6224 20.3516L26.6817 20.363L26.7409 20.3748L26.8001 20.3874L26.8593 20.4005L26.9185 20.4144L26.9775 20.4288L27.0366 20.4438L27.0956 20.4595L27.1544 20.4758L27.2133 20.4927L27.272 20.5103L27.3306 20.5285L27.3891 20.5474L27.4476 20.5669L27.5059 20.587L27.5641 20.6077L27.6222 20.6291L27.6801 20.6511L27.7379 20.6737L27.7955 20.6969L27.853 20.7208L27.9103 20.7453L27.9675 20.7704L28.0245 20.7962L28.0813 20.8226L28.1379 20.8496L28.1943 20.8772L28.2505 20.9054L28.3064 20.9344L28.3622 20.9638L28.4178 20.9939L28.4731 21.0247L28.5282 21.056L28.583 21.0879L28.6375 21.1204L28.6918 21.1536L28.7458 21.1874L28.7996 21.2218L28.853 21.2566L28.9062 21.2922L28.9592 21.3285L29.0118 21.3653L29.064 21.4026L29.116 21.4405L29.1676 21.4791L29.2189 21.5182L29.2699 21.5579L29.3206 21.5982L29.3708 21.6391L29.4207 21.6804L29.4703 21.7225L29.5195 21.7651L29.5683 21.8082L29.6167 21.8519L29.6647 21.8962L29.7123 21.941L29.7595 21.9864L29.8064 22.0324L29.8527 22.0788L29.8987 22.1259L29.9443 22.1734L29.9894 22.2215L30.034 22.2702L30.0782 22.3193L30.1221 22.369L30.1653 22.4192L30.2081 22.4699L30.2505 22.5211L30.2924 22.5728L30.3337 22.6251L30.3746 22.6778L30.415 22.7311L30.455 22.7847L30.4943 22.839L30.5331 22.8936L30.5715 22.9488L30.6093 23.0044L30.6466 23.0606L30.6833 23.1171L30.7196 23.1741L30.7552 23.2316L30.7903 23.2895L30.8248 23.3479L30.8587 23.4066L30.8921 23.4658L30.9249 23.5255L30.9571 23.5855L30.9888 23.646L31.0198 23.7069L31.0503 23.7681L31.0801 23.8298L31.1092 23.892L31.1378 23.9544L31.1659 24.0173L31.1933 24.0805L31.22 24.1441L31.2461 24.208L31.2715 24.2723L31.2963 24.3369L31.3206 24.4019L31.3441 24.4673L31.3669 24.533L31.3891 24.5989L31.4106 24.6652L31.4314 24.7319L31.4516 24.7988L31.4711 24.866L31.4899 24.9336L31.5081 25.0014L31.5256 25.0694L31.5423 25.1379L31.5583 25.2065L31.5737 25.2753L31.5884 25.3446L31.6023 25.4139L31.6154 25.4834L31.6279 25.5534L31.6398 25.6235L31.6509 25.6937L31.6612 25.7642L31.6707 25.8349L31.6796 25.9058L31.6877 25.9769L31.6952 26.0482L31.7018 26.1196L31.7077 26.1912L31.7129 26.2631L31.7173 26.3349L31.721 26.407L31.7238 26.4792L31.726 26.5515L31.7273 26.624L31.728 26.6966L31.7278 26.7691L31.727 26.8419L31.7253 26.9148L31.7228 26.9878L31.7197 27.0608L31.7156 27.1338L31.7109 27.207L31.7054 27.2801L31.699 27.3534L31.6919 27.4267L31.6841 27.5L31.6753 27.5732L31.6659 27.6466L31.6557 27.72L31.6447 27.7933L31.6329 27.8666L31.6203 27.9398L31.6069 28.0131L31.5927 28.0864L31.5778 28.1595L31.562 28.2327L31.5455 28.3057L31.5282 28.3788L31.51 28.4517L31.4911 28.5246L31.4715 28.5973L31.4509 28.67L31.4296 28.7424L31.4075 28.8148L31.3847 28.8872L31.3611 28.9593L31.3366 29.0314L31.3115 29.1032L31.2853 29.1748L31.2585 29.2464L31.231 29.3177L31.2026 29.389L31.1734 29.4599L31.1435 29.5307L31.1128 29.6012L31.0812 29.6717L31.049 29.7417L31.0159 29.8116L30.982 29.8813L30.9475 29.9507L30.912 30.0198L30.8758 30.0887L30.8388 30.1573L30.8011 30.2256L30.7627 30.2937L30.7235 30.3614L30.6834 30.4289L30.6428 30.4959L30.6012 30.5628L30.559 30.6292L30.516 30.6952L30.4721 30.7611L30.4277 30.8264L30.3824 30.8915L30.3365 30.9562L30.2897 31.0205L30.2423 31.0844L30.194 31.1479L30.1451 31.211L30.0955 31.2737L30.0451 31.336L29.9941 31.3978L29.9423 31.4593L29.8898 31.5203L29.8365 31.5808L29.7827 31.6408L29.7281 31.7005L29.6727 31.7596L29.6168 31.8182L29.5601 31.8765L29.5028 31.9341L29.4448 31.9912L29.3862 32.0479L29.3267 32.1041L29.2667 32.1596L29.206 32.2147L29.1447 32.2693L29.0828 32.3233L29.0201 32.3767L28.9569 32.4296L28.893 32.4819L28.8285 32.5337L28.7633 32.5847L28.6976 32.6353L28.6313 32.6853L28.5643 32.7347L28.4968 32.7834L28.4286 32.8315L28.36 32.8791L28.2906 32.9259L28.2208 32.9722L28.1503 33.0177L28.0793 33.0628L28.0077 33.1071L27.9356 33.1507L27.8629 33.1936L27.7898 33.2359L27.716 33.2775L27.6417 33.3184L27.567 33.3587L27.4917 33.3982L27.4159 33.4371L27.3396 33.4751L27.2629 33.5126L27.1856 33.5492L27.1078 33.5851L27.0297 33.6204L26.951 33.6547L26.872 33.6885L26.7924 33.7215L26.7124 33.7537L26.6319 33.7851L26.5511 33.8158L26.4698 33.8457L26.3881 33.8749L26.3061 33.9033L26.2236 33.9308L26.1408 33.9576L26.0576 33.9835L25.974 34.0087L25.89 34.0332L25.8057 34.0567L25.7211 34.0795L25.6361 34.1014L25.5508 34.1225L25.4651 34.1427L25.3792 34.1622L25.2929 34.1808L25.2064 34.1986L25.1196 34.2155L25.0325 34.2316L24.9451 34.2468L24.8574 34.2613L24.7696 34.2747L24.6815 34.2874L24.5932 34.2992L24.5045 34.3102L24.4158 34.3202L24.3268 34.3293L24.2376 34.3377L24.1482 34.345L24.0586 34.3517L23.9688 34.3572L23.879 34.3621L23.7889 34.366L23.6988 34.3689L23.6084 34.3709L23.518 34.3721L23.4274 34.3725L23.3368 34.3719L23.246 34.3703L23.1551 34.3679L23.0643 34.3645L22.9733 34.3603L22.8821 34.3551L22.791 34.3491L22.6999 34.3421L22.6088 34.3342L22.5175 34.3253L22.4264 34.3156L22.3352 34.3049L22.2441 34.2933L22.1528 34.2808L22.0617 34.2674L21.9706 34.253L21.8796 34.2377L21.7886 34.2215L21.6977 34.2044L21.6068 34.1864L21.5161 34.1674L21.4254 34.1476L21.3349 34.1266L21.2445 34.1049L21.1541 34.0823L21.0639 34.0587L20.974 34.0341L20.884 34.0087L20.7945 33.9823L20.7049 33.955L20.6155 33.9268L20.5264 33.8977L20.4374 33.8677L20.3488 33.8367L20.2603 33.8048L20.172 33.772L20.0841 33.7383L19.9963 33.7037L19.9088 33.6681L19.8216 33.6317L19.7347 33.5944L19.6481 33.5561L19.5617 33.5169L19.4758 33.4769L19.39 33.4359L19.3047 33.394L19.2197 33.3513L19.1351 33.3076L19.0508 33.2631L18.9669 33.2177L18.8833 33.1714L18.8003 33.1242L18.7174 33.0761L18.6352 33.0272L18.5533 32.9774L18.4718 32.9267L18.3908 32.8752L18.3102 32.8229L18.23 32.7696L18.1504 32.7154L18.0713 32.6605L17.9926 32.6047L17.9144 32.5481L17.8367 32.4905L17.7595 32.4323L17.683 32.3732L17.6069 32.3131L17.5313 32.2524L17.4563 32.1908L17.3818 32.1284L17.308 32.0652L17.2347 32.0011L17.162 31.9364L17.0899 31.8708L17.0184 31.8044L16.9475 31.7372L16.8773 31.6693L16.8076 31.6006L16.7387 31.5311L16.6704 31.4609L16.6027 31.3899L16.5357 31.3183L16.4694 31.2457L16.4038 31.1726L16.3388 31.0987L16.2746 31.024L16.211 30.9487L16.1481 30.8726L16.0861 30.7958L16.0248 30.7184L15.9641 30.6403L15.9042 30.5615L15.8451 30.4819L15.7869 30.4018L15.7293 30.321L15.6725 30.2394L15.6164 30.1573L15.5612 30.0745L15.5069 29.9911L15.4533 29.9071L15.4005 29.8225L15.3486 29.7373L15.2975 29.6513L15.2472 29.5649L15.1978 29.4778L15.1493 29.3903L15.1015 29.3021L15.0547 29.2134L15.0087 29.124L14.9636 29.0342L14.9194 28.9439L14.8761 28.8529L14.8337 28.7615L14.7922 28.6696L14.7517 28.5772L14.712 28.4842L14.6732 28.3908L14.6354 28.2969L14.5985 28.2025L14.5626 28.1076L14.5277 28.0124L14.4937 27.9167L14.4606 27.8206L14.4285 27.724L14.3974 27.627L14.3673 27.5296L14.3381 27.4319L14.3098 27.3337L14.2826 27.2351L14.2565 27.1362L14.2312 27.0369L14.2071 26.9373L14.184 26.8374L14.1617 26.7371L14.1406 26.6365L14.1205 26.5356L14.1013 26.4344L14.0833 26.3329L14.0662 26.2312L14.0503 26.1292L14.0353 26.0268L14.0213 25.9244L14.0086 25.8215L13.9968 25.7186L13.986 25.6153L13.9763 25.5119L13.9677 25.4083L13.9601 25.3045L13.9536 25.2005L13.9482 25.0964L13.9438 24.9921L13.9405 24.8877L13.9384 24.7831L13.9373 24.6785L13.9372 24.5737L13.9383 24.4687L13.9405 24.3638L13.9437 24.2587L13.9481 24.1535L13.9535 24.0483L13.96 23.9432L13.9676 23.8379L13.9763 23.7326L13.9861 23.6273L13.997 23.522L14.009 23.4167L14.0222 23.3114L14.0363 23.2062L14.0517 23.101L14.0681 22.9958L14.0857 22.8907L14.1043 22.7857L14.124 22.6807L14.145 22.5759L14.1669 22.4712L14.19 22.3666L14.2141 22.2621L14.2394 22.1579L14.2657 22.0537L14.2933 21.9497L14.3219 21.8459L14.3515 21.7423L14.3823 21.6387L14.4142 21.5356L14.4471 21.4325L14.4812 21.3297L14.5164 21.2272L14.5527 21.1249L14.59 21.0229L14.6284 20.9211L14.668 20.8197L14.7087 20.7186L14.7504 20.6176L14.7932 20.5172L14.837 20.417L14.8821 20.3171L14.928 20.2176L14.9752 20.1184L15.0233 20.0198L15.0726 19.9213L15.1228 19.8233L15.1742 19.7258L15.2266 19.6287L15.2801 19.532L15.3346 19.4357L15.3901 19.3399L15.4467 19.2446L15.5044 19.1497L15.563 19.0553L15.6228 18.9614L15.6836 18.868L15.7453 18.7751L15.808 18.6828L15.8718 18.5909L15.9366 18.4997L16.0024 18.4091L16.0692 18.3189L16.1369 18.2293L16.2057 18.1404L16.2754 18.052L16.3462 17.9643L16.4179 17.8771L16.4905 17.7907L16.5641 17.7048L16.6387 17.6196L16.7142 17.5351L16.7907 17.4512L16.8681 17.3681L16.9465 17.2856L17.0258 17.2038L17.1059 17.1228L17.187 17.0424L17.269 16.9627L17.3518 16.8839L17.4356 16.8058L17.5202 16.7284L17.6057 16.6518L17.6921 16.5759L17.7794 16.501L17.8674 16.4267L17.9564 16.3533L18.0461 16.2807L18.1368 16.2089L18.2281 16.138L18.3204 16.0679L18.4134 15.9986L18.5073 15.9302L18.6019 15.8627L18.6973 15.7961L18.7935 15.7302L18.8905 15.6653L18.9882 15.6014L19.0866 15.5384L19.1859 15.4763L19.2857 15.415L19.3864 15.3548L19.4877 15.2954L19.5898 15.2371L19.6925 15.1796L19.7959 15.1231L19.9001 15.0677L20.0048 15.0132L20.1102 14.9597L20.2162 14.9072L20.3229 14.8557L20.4302 14.8052L20.5381 14.7557L20.6466 14.7072L20.7557 14.6599L20.8655 14.6134L20.9757 14.568L21.0865 14.5238L21.1979 14.4806L21.3098 14.4384L21.4222 14.3973L21.5352 14.3573L21.6488 14.3183L21.7627 14.2805L21.8772 14.2437L21.9921 14.208L22.1076 14.1735L22.2234 14.1401L22.3397 14.1078L22.4564 14.0766L22.5736 14.0465L22.6912 14.0175L22.8091 13.9898L22.9275 13.9632L23.0462 13.9376L23.1653 13.9133L23.2847 13.8901L23.3446 13.879ZM24.8123 22.4594L23.4501 22.7849L23.3701 16.0373L23.3059 16.0517L23.2093 16.0745L23.1127 16.0982L23.0169 16.1228L22.9211 16.1484L22.826 16.1748L22.7309 16.2024L22.6367 16.2305L22.5422 16.2598L22.449 16.2897L22.3555 16.3208L22.2626 16.3527L22.1702 16.3854L22.0781 16.419L21.9869 16.4534L21.8958 16.4888L21.8051 16.525L21.7151 16.562L21.6252 16.6L21.5364 16.6386L21.4476 16.6783L21.3597 16.7186L21.2719 16.7599L21.1849 16.8019L21.0982 16.8448L21.0124 16.8884L20.9269 16.9328L20.8421 16.9781L20.7578 17.0241L20.674 17.0709L20.5908 17.1185L20.5086 17.1667L20.4262 17.216L20.3449 17.2658L20.2643 17.3163L20.1842 17.3676L20.1045 17.4198L20.0257 17.4726L19.9474 17.5261L19.8698 17.5802L19.793 17.6351L19.7165 17.6907L19.6409 17.7471L19.566 17.8041L19.4916 17.8618L19.4181 17.9199L19.3453 17.9789L19.273 18.0386L19.2014 18.0989L19.1307 18.1597L19.0606 18.2213L18.9912 18.2833L18.9226 18.3461L18.8546 18.4095L18.7875 18.4735L18.7211 18.5379L18.6552 18.6031L18.5904 18.6687L18.5262 18.735L18.4628 18.8017L18.4 18.8693L18.3382 18.937L18.2771 19.0054L18.2167 19.0744L18.1572 19.1437L18.0984 19.2138L18.0406 19.284L17.9833 19.3551L17.927 19.4264L17.8713 19.4983L17.8166 19.5708L17.7627 19.6435L17.7096 19.7166L17.6573 19.7902L17.6058 19.8645L17.5551 19.9389L17.5053 20.014L17.4564 20.0891L17.4083 20.1648L17.3609 20.241L17.3146 20.3173L17.2689 20.3944L17.2242 20.4713L17.1802 20.549L17.1371 20.6269L17.095 20.705L17.0536 20.7834L17.0132 20.8623L16.9735 20.9416L16.9349 21.0208L16.8969 21.1006L16.8599 21.1805L16.8239 21.2608L16.7886 21.3413L16.7542 21.4221L16.7207 21.5029L16.6881 21.5842L16.6564 21.6657L16.6255 21.7473L16.5956 21.829L16.5665 21.9111L16.5383 21.9934L16.511 22.0758L16.4845 22.1583L16.459 22.2411L16.4343 22.3239L16.4106 22.4068L16.3877 22.49L16.3656 22.5733L16.3446 22.6566L16.3243 22.7401L16.305 22.8236L16.2865 22.9073L16.269 22.9911L16.2524 23.0748L16.2365 23.1585L16.2216 23.2426L16.2077 23.3264L16.1946 23.4103L16.1823 23.4944L16.1709 23.5782L16.1605 23.6624L16.151 23.7461L16.1422 23.8302L16.1344 23.9143L16.1275 23.9981L16.1214 24.082L16.1162 24.1659L16.1119 24.2496L16.1084 24.3333L16.1058 24.4168L16.1042 24.5005L16.1032 24.5839L16.1033 24.6673L16.1042 24.7505L16.1059 24.8337L16.1085 24.9166L16.112 24.9995L16.1162 25.0822L16.1214 25.1647L16.1275 25.2471L16.1343 25.3293L16.142 25.4113L16.1505 25.4933L16.1598 25.5748L16.17 25.6564L16.181 25.7375L16.1929 25.8187L16.2056 25.8994L16.219 25.98L16.2333 26.0605L16.2485 26.1405L16.2644 26.2204L16.2811 26.2998L16.2987 26.3792L16.317 26.4582L16.3362 26.537L16.356 26.6152L16.3768 26.6936L16.3982 26.7712L16.4204 26.8489L16.4435 26.9259L16.4672 27.0029L16.4918 27.0793L16.5171 27.1553L16.5432 27.2313L16.57 27.3067L16.5976 27.3817L16.6258 27.4565L16.6549 27.5308L16.6847 27.6047L16.7152 27.6782L16.7463 27.7512L16.7783 27.824L16.8109 27.8963L16.8442 27.9682L16.8783 28.0396L16.9129 28.1105L16.9485 28.1813L16.9844 28.2512L17.0211 28.3208L17.0586 28.3901L17.0968 28.4588L17.1355 28.5271L17.1749 28.5949L17.215 28.662L17.2557 28.7289L17.297 28.7952L17.3389 28.8609L17.3816 28.9263L17.4247 28.9911L17.4686 29.0555L17.5129 29.1189L17.5579 29.1823L17.6035 29.2449L17.6496 29.307L17.6966 29.3686L17.7438 29.4296L17.7917 29.49L17.8401 29.5499L17.8892 29.6094L17.9386 29.668L17.9888 29.7263L18.0394 29.7839L18.0905 29.8409L18.1423 29.8974L18.1943 29.9531L18.247 30.0085L18.3002 30.0631L18.3538 30.1171L18.408 30.1705L18.4626 30.2233L18.5177 30.2756L18.5732 30.3271L18.6292 30.378L18.6857 30.4284L18.7426 30.478L18.7999 30.5271L18.8576 30.5755L18.9157 30.6233L18.9743 30.6704L19.0334 30.7169L19.0926 30.7626L19.1524 30.8077L19.2126 30.8523L19.2731 30.8961L19.334 30.9393L19.3952 30.9818L19.4568 31.0237L19.5187 31.0648L19.5808 31.1052L19.6434 31.145L19.7065 31.1843L19.7696 31.2226L19.833 31.2604L19.897 31.2975L19.9609 31.3338L20.0252 31.3695L20.0901 31.4046L20.155 31.4388L20.2201 31.4724L20.2854 31.5053L20.3513 31.5375L20.417 31.569L20.4833 31.5998L20.5496 31.6299L20.616 31.6592L20.6829 31.688L20.7499 31.716L20.8169 31.7433L20.8843 31.7699L20.9518 31.7956L21.0196 31.8208L21.0872 31.8453L21.1554 31.869L21.2233 31.8919L21.2915 31.9143L21.36 31.9359L21.4285 31.9568L21.497 31.9769L21.5657 31.9964L21.6346 32.0151L21.7035 32.0332L21.7724 32.0504L21.8414 32.0671L21.9104 32.0829L21.9796 32.0981L22.0488 32.1126L22.1181 32.1263L22.1873 32.1394L22.2566 32.1517L22.326 32.1634L22.3953 32.1743L22.4647 32.1846L22.5339 32.194L22.6032 32.2028L22.6725 32.2109L22.7419 32.2184L22.8111 32.225L22.8804 32.231L22.9495 32.2363L23.0185 32.2409L23.0877 32.2448L23.1566 32.248L23.2253 32.2506L23.2944 32.2524L23.3629 32.2536L23.4314 32.2541L23.5 32.2538L23.5683 32.253L23.6367 32.2513L23.7049 32.2491L23.7728 32.2463L23.8406 32.2426L23.9085 32.2383L23.9759 32.2334L24.0434 32.2278L24.1105 32.2216L24.1776 32.2147L24.2445 32.207L24.3111 32.1989L24.3777 32.19L24.4439 32.1804L24.5099 32.1703L24.5759 32.1595L24.6415 32.148L24.7069 32.136L24.7721 32.1232L24.8371 32.1099L24.9016 32.0959L24.9659 32.0814L25.0302 32.0661L25.0941 32.0503L25.1577 32.034L25.2211 32.017L25.2841 31.9994L25.3471 31.9811L25.4095 31.9623L25.4714 31.9429L25.5335 31.9228L25.595 31.9022L25.6562 31.8812L25.7171 31.8594L25.7776 31.8371L25.838 31.8142L25.8979 31.7908L25.9573 31.7668L26.0166 31.7423L26.0754 31.7172L26.134 31.6915L26.1919 31.6654L26.2498 31.6387L26.3072 31.6115L26.364 31.5837L26.4207 31.5555L26.4768 31.5268L26.5327 31.4975L26.5881 31.4676L26.643 31.4373L26.6975 31.4066L26.7518 31.3753L26.8055 31.3435L26.8587 31.3112L26.9115 31.2785L26.964 31.2453L27.016 31.2117L27.0677 31.1775L27.1187 31.143L27.1694 31.1079L27.2196 31.0725L27.2693 31.0367L27.3186 31.0003L27.3674 30.9635L27.4157 30.9263L27.4636 30.8887L27.5111 30.8506L27.5579 30.8124L27.6043 30.7736L27.6502 30.7344L27.6956 30.6948L27.7406 30.6548L27.785 30.6144L27.829 30.5737L27.8722 30.5327L27.9153 30.4913L27.9577 30.4494L27.9996 30.4073L28.041 30.3649L28.0818 30.322L28.1221 30.279L28.162 30.2354L28.2011 30.1918L28.24 30.1476L28.2782 30.1031L28.3158 30.0586L28.3531 30.0134L28.3895 29.9683L28.4257 29.9227L28.4613 29.8769L28.4961 29.8309L28.5306 29.7844L28.5644 29.738L28.5978 29.6909L28.6306 29.6438L28.6628 29.5966L28.6944 29.5489L28.7256 29.5011L28.756 29.4531L28.786 29.4049L28.8155 29.3565L28.8443 29.3078L28.8727 29.259L28.9003 29.2099L28.9275 29.1608L28.9541 29.1112L28.9801 29.0618L29.0055 29.0121L29.0304 28.9622L29.0548 28.9122L29.0785 28.8619L29.1017 28.8117L29.1243 28.7612L29.1462 28.7107L29.1678 28.6599L29.1886 28.6092L29.209 28.558L29.2286 28.5073L29.2479 28.4558L29.2663 28.4051L29.2844 28.3536L29.3019 28.3021L29.3187 28.2508L29.335 28.1992L29.3507 28.1478L29.3659 28.0958L29.3804 28.0445L29.3945 27.9924L29.4079 27.9411L29.4208 27.8891L29.4331 27.8371L29.4448 27.7855L29.4559 27.734L29.4665 27.6817L29.4766 27.6301L29.486 27.578L29.4949 27.5264L29.5033 27.4747L29.5111 27.4228L29.5183 27.3709L29.5249 27.3191L29.531 27.2676L29.5366 27.2162L29.5416 27.1643L29.5461 27.1129L29.55 27.0614L29.5533 27.01L29.5561 26.9587L29.5583 26.9075L29.56 26.8566L29.5612 26.8053L29.5619 26.7541L29.562 26.7034L29.5615 26.6527L29.5606 26.6021L29.5591 26.5517L29.557 26.501L29.5544 26.4512L29.5514 26.4004L29.5478 26.3509L29.5437 26.3011L29.5391 26.251L29.5339 26.2015L29.5283 26.1524L29.5221 26.1027L29.5154 26.054L29.5082 26.005L29.5007 25.9566L29.4924 25.9078L29.4838 25.8594L29.4747 25.8114L29.4651 25.7635L29.4549 25.7155L29.4443 25.6681L29.4333 25.6207L29.4217 25.5737L29.4098 25.527L29.3971 25.48L29.3844 25.4339L29.3709 25.3873L29.3571 25.3416L29.3428 25.2959L29.328 25.2505L29.3128 25.2052L29.297 25.1601L29.2811 25.1156L29.2645 25.0713L29.2475 25.0269L29.2302 24.9832L29.2123 24.9392L29.1942 24.8963L29.1754 24.8529L29.1565 24.8103L29.137 24.7679L29.1172 24.7256L29.097 24.6838L29.0763 24.6422L29.0552 24.6008L29.0339 24.5599L29.012 24.5193L28.9899 24.479L28.9673 24.4389L28.9443 24.3992L28.9211 24.3599L28.8975 24.3209L28.8734 24.282L28.849 24.2438L28.8243 24.2058L28.7993 24.1681L28.7739 24.1306L28.7482 24.0937L28.7221 24.057L28.6957 24.0207L28.669 23.9848L28.642 23.9492L28.6148 23.914L28.587 23.879L28.5591 23.8446L28.5309 23.8104L28.5024 23.7766L28.4736 23.7432L28.4446 23.7102L28.4152 23.6776L28.3855 23.6453L28.3556 23.6133L28.3255 23.5819L28.295 23.5508L28.2643 23.5199L28.2334 23.4897L28.2022 23.4598L28.1709 23.4302L28.139 23.4009L28.1073 23.3722L28.0752 23.3437L28.0429 23.3158L28.0103 23.2882L27.9775 23.2611L27.9446 23.2343L27.9115 23.2079L27.8782 23.1819L27.8446 23.1563L27.8109 23.1312L27.777 23.1064L27.7428 23.0821L27.7087 23.0582L27.6743 23.0346L27.6398 23.0115L27.605 22.9888L27.5701 22.9665L27.5352 22.9446L27.4999 22.9231L27.4646 22.9021L27.4293 22.8815L27.3937 22.8613L27.3579 22.8415L27.3222 22.8221L27.2864 22.8031L27.2504 22.7845L27.2144 22.7664L27.178 22.7486L27.1419 22.7313L27.1055 22.7145L27.0691 22.698L27.0326 22.6819L26.9958 22.6662L26.9594 22.6511L26.9225 22.6363L26.8857 22.6219L26.8489 22.6079L26.812 22.5943L26.7752 22.5812L26.7382 22.5685L26.7012 22.5561L26.6643 22.5442L26.6272 22.5327L26.5901 22.5215L26.5532 22.5109L26.5159 22.5006L26.479 22.4908L26.4419 22.4814L26.4048 22.4723L26.3677 22.4636L26.3307 22.4554L26.2936 22.4476L26.2566 22.4401L26.2197 22.433L26.1828 22.4264L26.1457 22.4201L26.1091 22.4144L26.072 22.4089L26.0355 22.4038L25.9986 22.3991L25.962 22.3949L25.9256 22.391L25.8889 22.3875L25.8525 22.3843L25.8161 22.3816L25.7798 22.3793L25.7436 22.3772L25.7074 22.3757L25.6716 22.3745L25.6355 22.3736L25.5997 22.3731L25.5639 22.373L25.5283 22.3733L25.4928 22.3739L25.4574 22.3749L25.4221 22.3763L25.3871 22.378L25.3519 22.3801L25.3172 22.3824L25.2824 22.3852L25.2478 22.3884L25.2134 22.3918L25.1789 22.3956L25.1448 22.3997L25.1108 22.4042L25.077 22.409L25.0432 22.4142L25.0098 22.4197L24.9763 22.4255L24.9433 22.4316L24.9101 22.4381L24.8774 22.4448L24.8447 22.4519L24.8123 22.4594Z" fill="#1DAEFF"/>
</svg>
